<svg width="38" height="38" viewBox="0 0 38 38" fill="none" xmlns="http://www.w3.org/2000/svg">
<path d="M27.7801 10.2198C27.6394 10.0792 27.4487 10.0002 27.2498 10.0002C27.051 10.0002 26.8602 10.0792 26.7196 10.2198L18.9998 17.9396L11.2801 10.2198C11.1394 10.0792 10.9487 10.0002 10.7498 10.0002C10.551 10.0002 10.3602 10.0792 10.2196 10.2198C10.079 10.3605 10 10.5512 10 10.7501C10 10.949 10.079 11.1397 10.2196 11.2803L17.9393 19.0001L10.2196 26.7198C10.079 26.8605 10 27.0512 10 27.2501C10 27.449 10.079 27.6397 10.2196 27.7803C10.3602 27.9209 10.551 27.9999 10.7498 27.9999C10.9487 27.9999 11.1394 27.9209 11.2801 27.7803L18.9998 20.0606L26.7196 27.7803C26.8602 27.9209 27.051 27.9999 27.2498 27.9999C27.4487 27.9999 27.6394 27.9209 27.7801 27.7803C27.9207 27.6397 27.9997 27.449 27.9997 27.2501C27.9997 27.0512 27.9207 26.8605 27.7801 26.7198L20.0603 19.0001L27.7801 11.2803C27.9207 11.1397 27.9997 10.949 27.9997 10.7501C27.9997 10.5512 27.9207 10.3605 27.7801 10.2198Z" fill="white"/>
</svg>
